<?xml version="1.0" encoding="utf-8"?>
<!-- Generator: Adobe Illustrator 24.0.1, SVG Export Plug-In . SVG Version: 6.00 Build 0)  -->
<svg version="1.1" xmlns="http://www.w3.org/2000/svg" xmlns:xlink="http://www.w3.org/1999/xlink" x="0px" y="0px"
	 viewBox="0 0 200.8 17" style="enable-background:new 0 0 200.8 17;" xml:space="preserve">
<style type="text/css">
	.st0{fill:#FFFFFF;stroke:#333333;stroke-miterlimit:10;}
	.st1{fill:#333333;stroke:#333333;stroke-miterlimit:10;}
	.st2{fill:#333333;}
</style>
<g id="Layer_1">
	<polyline class="st0" points="0,0.5 43,0.5 71,8.5 43,16.5 0,16.5 	"/>
</g>
<g id="Layer_2">
	<path class="st1" d="M71,8.5l-11,3.2c0,0-1-1.2-1-3.2s1-3.2,1-3.2L71,8.5z"/>
	<g>
		<path class="st2" d="M42,3c0.5-1.4,1-2.5,1-2.5H0V3H42z"/>
		<path class="st2" d="M41.3,5H0v11.5h43c0,0-2-6-2-9C41,6.7,41.1,5.8,41.3,5z"/>
	</g>
	<g>
		<path class="st2" d="M89.1,11.6L87.5,16h-2.3l-2-8.2c-0.4,0-0.8-0.1-1-0.4s-0.3-0.5-0.3-0.8c0-0.4,0.1-0.6,0.4-0.9
			s0.7-0.3,1.2-0.3h2.2c0.6,0,1,0.1,1.2,0.3s0.4,0.5,0.4,0.9s-0.1,0.7-0.4,0.9c-0.2,0.2-0.6,0.3-1.2,0.3l0.9,3.8l1.5-3.9h2.1
			l1.5,3.9l0.9-3.8c-0.6,0-1-0.1-1.2-0.2c-0.4-0.2-0.6-0.6-0.6-1c0-0.4,0.1-0.6,0.4-0.9s0.7-0.3,1.2-0.3h2.3c0.6,0,1,0.1,1.2,0.3
			s0.4,0.5,0.4,0.9c0,0.3-0.1,0.6-0.3,0.8s-0.5,0.3-1,0.4l-2,8.2h-2.2L89.1,11.6z"/>
		<path class="st2" d="M102.1,5.4v1.5c1-0.7,1.8-1.2,2.4-1.5s1.1-0.4,1.6-0.4c0.8,0,1.5,0.3,2.3,0.9c0.5,0.4,0.8,0.8,0.8,1.2
			c0,0.3-0.1,0.6-0.4,0.9s-0.5,0.4-0.9,0.4c-0.3,0-0.6-0.1-0.9-0.4s-0.6-0.4-0.9-0.4c-0.3,0-0.8,0.2-1.5,0.6s-1.5,1.1-2.5,1.9v3.6
			h3.4c0.6,0,1,0.1,1.2,0.3s0.4,0.5,0.4,0.9c0,0.4-0.1,0.6-0.4,0.9s-0.7,0.3-1.2,0.3h-7.3c-0.6,0-1-0.1-1.2-0.3s-0.4-0.5-0.4-0.9
			c0-0.4,0.1-0.6,0.4-0.9s0.7-0.3,1.2-0.3h1.4V7.8h-0.9c-0.6,0-1-0.1-1.2-0.3s-0.4-0.5-0.4-0.9c0-0.4,0.1-0.6,0.4-0.9
			s0.7-0.3,1.2-0.3H102.1z"/>
		<path class="st2" d="M115.3,5.4v8.2h2.9c0.6,0,1,0.1,1.2,0.3s0.4,0.5,0.4,0.9c0,0.4-0.1,0.6-0.4,0.9s-0.7,0.3-1.2,0.3H110
			c-0.6,0-1-0.1-1.2-0.3s-0.4-0.5-0.4-0.9c0-0.4,0.1-0.6,0.4-0.9s0.7-0.3,1.2-0.3h2.9V7.8H111c-0.6,0-1-0.1-1.2-0.3
			s-0.4-0.5-0.4-0.9c0-0.4,0.1-0.6,0.4-0.9s0.7-0.3,1.2-0.3H115.3z M115,0.8v2.5h-2.9V0.8H115z"/>
		<path class="st2" d="M122.6,7.8v4.8c0,0.5,0.1,0.9,0.3,1c0.3,0.3,0.9,0.4,1.8,0.4c1.2,0,2.4-0.3,3.4-0.8c0.4-0.2,0.7-0.3,0.9-0.3
			c0.3,0,0.6,0.1,0.8,0.4s0.3,0.5,0.3,0.9c0,0.3-0.1,0.6-0.4,0.8c-0.4,0.4-1.1,0.7-2.3,1s-2.1,0.5-2.9,0.5c-1.5,0-2.6-0.3-3.4-1
			s-1.1-1.4-1.1-2.4V7.8h-0.9c-0.6,0-1-0.1-1.2-0.3s-0.4-0.5-0.4-0.9c0-0.4,0.1-0.6,0.4-0.9s0.7-0.3,1.2-0.3h0.9V3.2
			c0-0.6,0.1-1,0.3-1.2s0.5-0.4,0.9-0.4c0.4,0,0.6,0.1,0.9,0.4s0.3,0.7,0.3,1.2v2.2h4.4c0.6,0,1,0.1,1.2,0.3s0.4,0.5,0.4,0.9
			c0,0.4-0.1,0.6-0.4,0.9s-0.7,0.3-1.2,0.3H122.6z"/>
		<path class="st2" d="M142.2,11.9h-9.9c0.2,0.6,0.7,1.1,1.3,1.5s1.5,0.6,2.6,0.6c0.9,0,2.1-0.2,3.6-0.6c0.6-0.2,1-0.2,1.3-0.2
			c0.3,0,0.6,0.1,0.8,0.3s0.3,0.5,0.3,0.9c0,0.3-0.1,0.6-0.4,0.8c-0.3,0.3-1.1,0.6-2.3,0.8s-2.4,0.4-3.5,0.4c-1.9,0-3.5-0.5-4.6-1.6
			s-1.7-2.4-1.7-4c0-1.7,0.6-3.1,1.9-4.1s2.7-1.6,4.3-1.6c1,0,1.9,0.2,2.7,0.5s1.4,0.7,1.8,1.1c0.6,0.6,1,1.3,1.4,2.1
			c0.2,0.6,0.4,1.3,0.4,2.1V11.9z M139.6,9.5c-0.4-0.7-0.8-1.2-1.4-1.5s-1.3-0.5-2.1-0.5c-0.8,0-1.5,0.2-2.1,0.5s-1.1,0.9-1.5,1.5
			H139.6z"/>
		<path class="st2" d="M150.8,8.2c-0.4-0.2-0.8-0.4-1.2-0.5s-0.9-0.2-1.3-0.2c-0.9,0-1.7,0.2-2.2,0.5c-0.2,0.1-0.4,0.3-0.4,0.4
			c0,0.2,0.2,0.4,0.5,0.5c0.2,0.1,0.8,0.2,1.7,0.4c1.6,0.2,2.7,0.4,3.3,0.7c0.8,0.3,1.5,0.7,1.9,1.3s0.7,1.2,0.7,1.8
			c0,0.9-0.4,1.6-1.1,2.2c-1.1,0.8-2.5,1.3-4.2,1.3c-0.7,0-1.3-0.1-1.9-0.2s-1.1-0.3-1.6-0.5c-0.1,0.1-0.2,0.2-0.4,0.2
			S144.1,16,144,16c-0.4,0-0.7-0.1-0.9-0.4s-0.3-0.7-0.3-1.2v-0.8c0-0.6,0.1-1,0.3-1.2s0.5-0.4,0.9-0.4c0.3,0,0.5,0.1,0.7,0.2
			s0.3,0.4,0.5,0.8c0.4,0.3,0.8,0.5,1.3,0.7s1.1,0.2,1.8,0.2c1.1,0,2-0.2,2.6-0.5c0.3-0.2,0.4-0.4,0.4-0.5c0-0.3-0.2-0.6-0.6-0.8
			s-1.3-0.4-2.6-0.5c-1.9-0.2-3.2-0.6-3.9-1.2c-0.6-0.6-1-1.3-1-2.1c0-0.9,0.4-1.6,1.1-2.1c1-0.8,2.3-1.2,3.9-1.2
			c0.6,0,1.1,0.1,1.6,0.2s1,0.3,1.5,0.5c0.1-0.1,0.3-0.2,0.4-0.2s0.2-0.1,0.4-0.1c0.3,0,0.6,0.1,0.8,0.4s0.3,0.7,0.3,1.2v0.6
			c0,0.5-0.1,0.9-0.2,1.1c-0.2,0.4-0.6,0.5-1,0.5c-0.3,0-0.5-0.1-0.8-0.3S150.8,8.5,150.8,8.2z"/>
		<path class="st2" d="M158.6,7.8v4.8c0,0.5,0.1,0.9,0.3,1c0.3,0.3,0.9,0.4,1.8,0.4c1.2,0,2.4-0.3,3.4-0.8c0.4-0.2,0.7-0.3,0.9-0.3
			c0.3,0,0.6,0.1,0.8,0.4s0.3,0.5,0.3,0.9c0,0.3-0.1,0.6-0.4,0.8c-0.4,0.4-1.1,0.7-2.3,1s-2.1,0.5-2.9,0.5c-1.5,0-2.6-0.3-3.4-1
			s-1.1-1.4-1.1-2.4V7.8h-0.9c-0.6,0-1-0.1-1.2-0.3s-0.4-0.5-0.4-0.9c0-0.4,0.1-0.6,0.4-0.9s0.7-0.3,1.2-0.3h0.9V3.2
			c0-0.6,0.1-1,0.3-1.2s0.5-0.4,0.9-0.4c0.4,0,0.6,0.1,0.9,0.4s0.3,0.7,0.3,1.2v2.2h4.4c0.6,0,1,0.1,1.2,0.3s0.4,0.5,0.4,0.9
			c0,0.4-0.1,0.6-0.4,0.9s-0.7,0.3-1.2,0.3H158.6z"/>
		<path class="st2" d="M176.8,5.4v8.2c0.5,0,0.9,0.1,1.1,0.3s0.4,0.5,0.4,0.9s-0.1,0.6-0.4,0.9s-0.7,0.3-1.2,0.3h-2.3v-0.6
			c-0.7,0.3-1.3,0.5-2,0.7s-1.2,0.2-1.8,0.2c-0.8,0-1.5-0.2-2.1-0.5s-1-0.8-1.4-1.4c-0.2-0.4-0.4-0.9-0.4-1.6V7.8h-0.4
			c-0.6,0-1-0.1-1.2-0.3s-0.4-0.5-0.4-0.9c0-0.4,0.1-0.6,0.4-0.9s0.7-0.3,1.2-0.3h2.8v7.1c0,0.5,0.1,0.9,0.4,1.1s0.6,0.4,1.1,0.4
			c0.5,0,1-0.1,1.6-0.3s1.2-0.5,2.1-1V7.8h-0.9c-0.6,0-1-0.1-1.2-0.3s-0.4-0.5-0.4-0.9c0-0.4,0.1-0.6,0.4-0.9s0.7-0.3,1.2-0.3H176.8
			z"/>
		<path class="st2" d="M183.2,7.8v5.8h3.4c0.6,0,1,0.1,1.2,0.3s0.4,0.5,0.4,0.9c0,0.4-0.1,0.6-0.4,0.9s-0.7,0.3-1.2,0.3h-7.3
			c-0.6,0-1-0.1-1.2-0.3s-0.4-0.5-0.4-0.9c0-0.4,0.1-0.6,0.4-0.9s0.7-0.3,1.2-0.3h1.4V7.8h-1.1c-0.6,0-1-0.1-1.2-0.3
			s-0.4-0.5-0.4-0.9c0-0.4,0.1-0.6,0.4-0.9s0.7-0.3,1.2-0.3h1.1V4.4c0-1,0.4-1.9,1.2-2.6s1.9-1,3.4-1c0.7,0,1.4,0.1,2.3,0.2
			s1.4,0.3,1.7,0.5s0.4,0.5,0.4,0.8c0,0.4-0.1,0.7-0.3,0.9s-0.5,0.3-0.8,0.3c-0.1,0-0.4,0-0.7-0.1c-1-0.2-1.9-0.3-2.6-0.3
			c-0.8,0-1.3,0.1-1.6,0.4s-0.5,0.5-0.5,0.9v0.9h3.7c0.6,0,1,0.1,1.2,0.3s0.4,0.5,0.4,0.9c0,0.4-0.1,0.6-0.4,0.9s-0.7,0.3-1.2,0.3
			H183.2z"/>
		<path class="st2" d="M192.8,7.8v5.8h3.4c0.6,0,1,0.1,1.2,0.3s0.4,0.5,0.4,0.9c0,0.4-0.1,0.6-0.4,0.9s-0.7,0.3-1.2,0.3H189
			c-0.6,0-1-0.1-1.2-0.3s-0.4-0.5-0.4-0.9c0-0.4,0.1-0.6,0.4-0.9s0.7-0.3,1.2-0.3h1.4V7.8h-1.1c-0.6,0-1-0.1-1.2-0.3
			s-0.4-0.5-0.4-0.9c0-0.4,0.1-0.6,0.4-0.9s0.7-0.3,1.2-0.3h1.1V4.4c0-1,0.4-1.9,1.2-2.6s1.9-1,3.4-1c0.7,0,1.4,0.1,2.3,0.2
			s1.4,0.3,1.7,0.5s0.4,0.5,0.4,0.8c0,0.4-0.1,0.7-0.3,0.9s-0.5,0.3-0.8,0.3c-0.1,0-0.4,0-0.7-0.1c-1-0.2-1.9-0.3-2.6-0.3
			c-0.8,0-1.3,0.1-1.6,0.4s-0.5,0.5-0.5,0.9v0.9h3.7c0.6,0,1,0.1,1.2,0.3s0.4,0.5,0.4,0.9c0,0.4-0.1,0.6-0.4,0.9s-0.7,0.3-1.2,0.3
			H192.8z"/>
	</g>
</g>
</svg>
