<?xml version="1.0" encoding="utf-8"?>
<!-- Generator: Adobe Illustrator 24.0.1, SVG Export Plug-In . SVG Version: 6.00 Build 0)  -->
<svg version="1.1" id="Layer_1" xmlns="http://www.w3.org/2000/svg" xmlns:xlink="http://www.w3.org/1999/xlink" x="0px" y="0px"
	 viewBox="0 0 150 800" style="enable-background:new 0 0 150 800;" xml:space="preserve">
<style type="text/css">
	.st0{fill:#666666;}
	.st1{fill-rule:evenodd;clip-rule:evenodd;fill:#666666;}
	.st2{fill:#0081C2;}
	.st3{fill-rule:evenodd;clip-rule:evenodd;fill:#0081C2;}
	.st4{fill:#FFFFFF;}
	.st5{fill-rule:evenodd;clip-rule:evenodd;fill:#FFFFFF;}
</style>
<g id="path-1_1_">
	<path class="st0" d="M13,2c6.1,0,11,4.9,11,11s-4.9,11-11,11S2,19.1,2,13S6.9,2,13,2 M13,0C5.8,0,0,5.8,0,13s5.8,13,13,13
		s13-5.8,13-13S20.2,0,13,0L13,0z"/>
</g>
<path id="Shape" class="st1" d="M13.8,20.7h-2.9v-6.8H9.5v-2.3h1.4v-1.4c0-1.9,0.8-3,3.1-3h1.9v2.3h-1.2c-0.9,0-1,0.3-1,0.9l0,1.2
	H16l-0.3,2.3h-1.9L13.8,20.7L13.8,20.7z"/>
<g id="path-3_1_">
	<path class="st0" d="M13,52c6.1,0,11,4.9,11,11s-4.9,11-11,11S2,69.1,2,63S6.9,52,13,52 M13,50C5.8,50,0,55.8,0,63s5.8,13,13,13
		s13-5.8,13-13S20.2,50,13,50L13,50z"/>
</g>
<path id="Shape_1_" class="st1" d="M18,60c0.5-0.3,0.9-0.9,1.1-1.5c-0.5,0.3-1,0.5-1.6,0.7c-0.5-0.5-1.1-0.8-1.9-0.8
	c-1.4,0-2.5,1.2-2.5,2.7c0,0.2,0,0.4,0.1,0.6c-2.1-0.1-4-1.2-5.2-2.8c-0.2,0.4-0.3,0.9-0.3,1.4c0,0.9,0.4,1.8,1.1,2.2
	c-0.4,0-0.8-0.1-1.2-0.3v0c0,1.3,0.9,2.4,2,2.6c-0.2,0.1-0.4,0.1-0.7,0.1c-0.2,0-0.3,0-0.5,0c0.3,1.1,1.3,1.8,2.4,1.9
	c-0.9,0.7-2,1.1-3.2,1.1c-0.2,0-0.4,0-0.6,0c1.1,0.8,2.5,1.2,3.9,1.2c4.7,0,7.2-4.1,7.2-7.6c0-0.1,0-0.2,0-0.3
	c0.5-0.4,0.9-0.9,1.3-1.4C19,59.7,18.6,59.9,18,60z"/>
<g id="path-13_1_">
	<path class="st0" d="M13,102c6.1,0,11,4.9,11,11s-4.9,11-11,11s-11-4.9-11-11S6.9,102,13,102 M13,100c-7.2,0-13,5.8-13,13
		s5.8,13,13,13s13-5.8,13-13S20.2,100,13,100L13,100z"/>
</g>
<path id="Shape_6_" class="st1" d="M7.4,110.9h2.3v8H7.4V110.9z M8.5,109.9L8.5,109.9c-0.9,0-1.4-0.6-1.4-1.4c0-0.8,0.6-1.4,1.4-1.4
	c0.8,0,1.4,0.6,1.4,1.4C9.9,109.3,9.3,109.9,8.5,109.9L8.5,109.9z M18.9,118.9h-2.6v-4.2c0-1.1-0.4-1.8-1.3-1.8
	c-0.7,0-1.1,0.5-1.2,1c-0.1,0.2-0.1,0.4-0.1,0.7v4.3h-2.6c0,0,0-7.4,0-8h2.6v1.3c0.2-0.6,1-1.3,2.3-1.3c1.6,0,2.9,1.2,2.9,3.6V118.9
	L18.9,118.9z"/>
<g id="path-1_3_">
	<path class="st2" d="M63,2c6.1,0,11,4.9,11,11s-4.9,11-11,11s-11-4.9-11-11S56.9,2,63,2 M63,0c-7.2,0-13,5.8-13,13s5.8,13,13,13
		s13-5.8,13-13S70.2,0,63,0L63,0z"/>
</g>
<path id="Shape_8_" class="st3" d="M63.8,20.7h-2.9v-6.8h-1.4v-2.3h1.4v-1.4c0-1.9,0.8-3,3.1-3h1.9v2.3h-1.2c-0.9,0-1,0.3-1,0.9
	l0,1.2H66l-0.3,2.3h-1.9L63.8,20.7L63.8,20.7z"/>
<g id="path-3_3_">
	<path class="st2" d="M63,52c6.1,0,11,4.9,11,11s-4.9,11-11,11s-11-4.9-11-11S56.9,52,63,52 M63,50c-7.2,0-13,5.8-13,13
		s5.8,13,13,13s13-5.8,13-13S70.2,50,63,50L63,50z"/>
</g>
<path id="Shape_7_" class="st3" d="M68,60c0.5-0.3,0.9-0.9,1.1-1.5c-0.5,0.3-1,0.5-1.6,0.7c-0.5-0.5-1.1-0.8-1.9-0.8
	c-1.4,0-2.5,1.2-2.5,2.7c0,0.2,0,0.4,0.1,0.6c-2.1-0.1-4-1.2-5.2-2.8c-0.2,0.4-0.3,0.9-0.3,1.4c0,0.9,0.4,1.8,1.1,2.2
	c-0.4,0-0.8-0.1-1.2-0.3v0c0,1.3,0.9,2.4,2,2.6c-0.2,0.1-0.4,0.1-0.7,0.1c-0.2,0-0.3,0-0.5,0c0.3,1.1,1.3,1.8,2.4,1.9
	c-0.9,0.7-2,1.1-3.2,1.1c-0.2,0-0.4,0-0.6,0c1.1,0.8,2.5,1.2,3.9,1.2c4.7,0,7.2-4.1,7.2-7.6c0-0.1,0-0.2,0-0.3
	c0.5-0.4,0.9-0.9,1.3-1.4C69,59.7,68.6,59.9,68,60z"/>
<g id="path-13_3_">
	<path class="st2" d="M63,102c6.1,0,11,4.9,11,11s-4.9,11-11,11s-11-4.9-11-11S56.9,102,63,102 M63,100c-7.2,0-13,5.8-13,13
		s5.8,13,13,13s13-5.8,13-13S70.2,100,63,100L63,100z"/>
</g>
<path id="Shape_5_" class="st3" d="M57.4,110.9h2.3v8h-2.3V110.9z M58.5,109.9L58.5,109.9c-0.9,0-1.4-0.6-1.4-1.4
	c0-0.8,0.6-1.4,1.4-1.4c0.8,0,1.4,0.6,1.4,1.4C59.9,109.3,59.3,109.9,58.5,109.9L58.5,109.9z M68.9,118.9h-2.6v-4.2
	c0-1.1-0.4-1.8-1.3-1.8c-0.7,0-1.1,0.5-1.2,1c-0.1,0.2-0.1,0.4-0.1,0.7v4.3h-2.6c0,0,0-7.4,0-8h2.6v1.3c0.2-0.6,1-1.3,2.3-1.3
	c1.6,0,2.9,1.2,2.9,3.6V118.9L68.9,118.9z"/>
<g id="path-1_2_">
	<path class="st4" d="M113,2c6.1,0,11,4.9,11,11s-4.9,11-11,11s-11-4.9-11-11S106.9,2,113,2 M113,0c-7.2,0-13,5.8-13,13
		s5.8,13,13,13s13-5.8,13-13S120.2,0,113,0L113,0z"/>
</g>
<path id="Shape_4_" class="st5" d="M113.8,20.7h-2.9v-6.8h-1.4v-2.3h1.4v-1.4c0-1.9,0.8-3,3.1-3h1.9v2.3h-1.2c-0.9,0-1,0.3-1,0.9
	l0,1.2h2.2l-0.3,2.3h-1.9L113.8,20.7L113.8,20.7z"/>
<g id="path-3_2_">
	<path class="st4" d="M113,52c6.1,0,11,4.9,11,11s-4.9,11-11,11s-11-4.9-11-11S106.9,52,113,52 M113,50c-7.2,0-13,5.8-13,13
		s5.8,13,13,13s13-5.8,13-13S120.2,50,113,50L113,50z"/>
</g>
<path id="Shape_3_" class="st5" d="M118,60c0.5-0.3,0.9-0.9,1.1-1.5c-0.5,0.3-1,0.5-1.6,0.7c-0.5-0.5-1.1-0.8-1.9-0.8
	c-1.4,0-2.5,1.2-2.5,2.7c0,0.2,0,0.4,0.1,0.6c-2.1-0.1-4-1.2-5.2-2.8c-0.2,0.4-0.3,0.9-0.3,1.4c0,0.9,0.4,1.8,1.1,2.2
	c-0.4,0-0.8-0.1-1.2-0.3v0c0,1.3,0.9,2.4,2,2.6c-0.2,0.1-0.4,0.1-0.7,0.1c-0.2,0-0.3,0-0.5,0c0.3,1.1,1.3,1.8,2.4,1.9
	c-0.9,0.7-2,1.1-3.2,1.1c-0.2,0-0.4,0-0.6,0c1.1,0.8,2.5,1.2,3.9,1.2c4.7,0,7.2-4.1,7.2-7.6c0-0.1,0-0.2,0-0.3
	c0.5-0.4,0.9-0.9,1.3-1.4C119,59.7,118.6,59.9,118,60z"/>
<g id="path-13_2_">
	<path class="st4" d="M113,102c6.1,0,11,4.9,11,11s-4.9,11-11,11s-11-4.9-11-11S106.9,102,113,102 M113,100c-7.2,0-13,5.8-13,13
		s5.8,13,13,13s13-5.8,13-13S120.2,100,113,100L113,100z"/>
</g>
<path id="Shape_2_" class="st5" d="M107.4,110.9h2.3v8h-2.3V110.9z M108.5,109.9L108.5,109.9c-0.9,0-1.4-0.6-1.4-1.4
	c0-0.8,0.6-1.4,1.4-1.4c0.8,0,1.4,0.6,1.4,1.4C109.9,109.3,109.3,109.9,108.5,109.9L108.5,109.9z M118.9,118.9h-2.6v-4.2
	c0-1.1-0.4-1.8-1.3-1.8c-0.7,0-1.1,0.5-1.2,1c-0.1,0.2-0.1,0.4-0.1,0.7v4.3h-2.6c0,0,0-7.4,0-8h2.6v1.3c0.2-0.6,1-1.3,2.3-1.3
	c1.6,0,2.9,1.2,2.9,3.6V118.9L118.9,118.9z"/>
<g>
	<path class="st0" d="M0.5,160c0.2-1,0.5-2.1,0.6-3.1c0.2-1.1,0.5-2,0.8-2.9c0.4-0.9,0.9-1.6,1.6-2.2c0.7-0.6,1.7-1,2.9-1.1
		l-0.4,1.7c-0.5,0.1-0.9,0.2-1.2,0.5c-0.3,0.2-0.6,0.5-0.8,0.8c-0.2,0.3-0.4,0.7-0.5,1.1c-0.1,0.4-0.2,0.8-0.3,1.2h2l-0.9,4H0.5z
		 M7.1,160c0.2-1,0.5-2.1,0.6-3.1c0.2-1.1,0.5-2,0.8-2.9c0.4-0.9,0.9-1.6,1.6-2.2c0.7-0.6,1.7-1,2.9-1.1l-0.4,1.7
		c-0.5,0.1-0.9,0.2-1.2,0.5c-0.3,0.2-0.6,0.5-0.8,0.8c-0.2,0.3-0.4,0.7-0.5,1.1c-0.1,0.4-0.2,0.8-0.3,1.2h2l-0.9,4H7.1z"/>
</g>
<g>
	<path class="st0" d="M56.7,151c-0.2,1-0.5,2.1-0.6,3.1c-0.2,1.1-0.5,2-0.8,2.9c-0.4,0.9-0.9,1.6-1.6,2.3s-1.7,1-3,1.1l0.4-1.7
		c0.5-0.1,0.9-0.2,1.2-0.5c0.3-0.2,0.6-0.5,0.8-0.8c0.2-0.3,0.4-0.7,0.5-1.1s0.2-0.8,0.4-1.2h-2l0.9-4H56.7z M63.3,151
		c-0.2,1-0.5,2.1-0.6,3.1c-0.2,1.1-0.5,2-0.8,2.9c-0.4,0.9-0.9,1.6-1.6,2.3s-1.7,1-3,1.1l0.4-1.7c0.5-0.1,0.9-0.2,1.2-0.5
		c0.3-0.2,0.6-0.5,0.8-0.8c0.2-0.3,0.4-0.7,0.5-1.1c0.1-0.4,0.2-0.8,0.4-1.2h-2l0.9-4H63.3z"/>
</g>
</svg>
