<?xml version="1.0" encoding="utf-8"?>
<!-- Generator: Adobe Illustrator 24.0.1, SVG Export Plug-In . SVG Version: 6.00 Build 0)  -->
<svg version="1.1" id="Layer_1" xmlns="http://www.w3.org/2000/svg" xmlns:xlink="http://www.w3.org/1999/xlink" x="0px" y="0px"
	 viewBox="0 0 150 800" style="enable-background:new 0 0 150 800;" xml:space="preserve">
<style type="text/css">
	.st0{fill:#666666;}
	.st1{fill-rule:evenodd;clip-rule:evenodd;fill:#666666;}
	.st2{fill:#0081C2;}
	.st3{fill-rule:evenodd;clip-rule:evenodd;fill:#0081C2;}
	.st4{fill:#FFFFFF;}
	.st5{fill-rule:evenodd;clip-rule:evenodd;fill:#FFFFFF;}
</style>
<g id="path-1_1_">
	<path class="st0" d="M13,2c6.1,0,11,4.9,11,11s-4.9,11-11,11S2,19.1,2,13S6.9,2,13,2 M13,0C5.8,0,0,5.8,0,13s5.8,13,13,13
		s13-5.8,13-13S20.2,0,13,0L13,0z"/>
</g>
<path id="Shape" class="st1" d="M13.8,20.7h-2.9v-6.8H9.5v-2.3h1.4v-1.4c0-1.9,0.8-3,3.1-3h1.9v2.3h-1.2c-0.9,0-1,0.3-1,0.9l0,1.2
	H16l-0.3,2.3h-1.9L13.8,20.7L13.8,20.7z"/>
<g id="path-3_1_">
	<path class="st0" d="M12.5,52C18.3,52,23,56.7,23,62.5S18.3,73,12.5,73S2,68.3,2,62.5S6.7,52,12.5,52 M12.5,50
		C5.6,50,0,55.6,0,62.5S5.6,75,12.5,75S25,69.4,25,62.5S19.4,50,12.5,50L12.5,50z"/>
</g>
<path id="Shape_1_" class="st1" d="M17.3,59.6c0.5-0.3,0.9-0.8,1.1-1.4c-0.5,0.3-1,0.5-1.6,0.6c-0.4-0.5-1.1-0.8-1.8-0.8
	c-1.4,0-2.4,1.2-2.4,2.6c0,0.2,0,0.4,0.1,0.6c-2-0.1-3.8-1.1-5-2.7c-0.2,0.4-0.3,0.8-0.3,1.3c0,0.9,0.4,1.7,1.1,2.1
	c-0.4,0-0.8-0.1-1.1-0.3v0c0,1.3,0.8,2.3,2,2.5c-0.2,0.1-0.4,0.1-0.6,0.1c-0.2,0-0.3,0-0.5,0c0.3,1,1.2,1.8,2.3,1.8
	c-0.8,0.7-1.9,1.1-3,1.1c-0.2,0-0.4,0-0.6,0c1.1,0.7,2.4,1.2,3.8,1.2c4.5,0,7-3.9,7-7.3c0-0.1,0-0.2,0-0.3c0.5-0.4,0.9-0.8,1.2-1.3
	C18.3,59.4,17.8,59.5,17.3,59.6z"/>
<g id="path-13_1_">
	<path class="st0" d="M12.5,102c5.8,0,10.5,4.7,10.5,10.5S18.3,123,12.5,123S2,118.3,2,112.5S6.7,102,12.5,102 M12.5,100
		C5.6,100,0,105.6,0,112.5c0,6.9,5.6,12.5,12.5,12.5c6.9,0,12.5-5.6,12.5-12.5C25,105.6,19.4,100,12.5,100L12.5,100z"/>
</g>
<path id="Shape_6_" class="st1" d="M7.1,110.4h2.2v7.7H7.1V110.4z M8.1,109.5L8.1,109.5c-0.8,0-1.3-0.6-1.3-1.3
	c0-0.8,0.5-1.3,1.4-1.3c0.8,0,1.3,0.6,1.3,1.3C9.5,108.9,9,109.5,8.1,109.5L8.1,109.5z M18.2,118.2h-2.5v-4c0-1-0.4-1.8-1.3-1.8
	c-0.7,0-1,0.5-1.2,0.9c-0.1,0.2-0.1,0.4-0.1,0.6v4.2h-2.5c0,0,0-7.1,0-7.7h2.5v1.2c0.1-0.5,0.9-1.3,2.2-1.3c1.6,0,2.8,1.1,2.8,3.5
	V118.2L18.2,118.2z"/>
<g id="path-1_3_">
	<path class="st2" d="M62.2,2c5.6,0,10.2,4.6,10.2,10.2s-4.6,10.2-10.2,10.2S52,17.8,52,12.2S56.6,2,62.2,2 M62.2,0
		C55.4,0,50,5.4,50,12.2s5.4,12.2,12.2,12.2s12.2-5.4,12.2-12.2S68.9,0,62.2,0L62.2,0z"/>
</g>
<path id="Shape_8_" class="st3" d="M62.9,19.3h-2.7V13h-1.3v-2.2h1.3V9.5c0-1.8,0.8-2.9,2.9-2.9h1.8v2.2h-1.1
	c-0.8,0-0.9,0.3-0.9,0.9l0,1.1h2L64.7,13h-1.8L62.9,19.3L62.9,19.3z"/>
<g id="path-3_3_">
	<path class="st2" d="M62.2,52.7c5.6,0,10.2,4.6,10.2,10.2S67.8,73,62.2,73S52,68.4,52,62.8S56.6,52.7,62.2,52.7 M62.2,50.7
		c-6.7,0-12.2,5.4-12.2,12.2S55.4,75,62.2,75s12.2-5.4,12.2-12.2S68.9,50.7,62.2,50.7L62.2,50.7z"/>
</g>
<path id="Shape_7_" class="st3" d="M66.9,60c0.5-0.3,0.9-0.8,1-1.4c-0.5,0.3-1,0.5-1.5,0.6c-0.4-0.5-1.1-0.8-1.7-0.8
	c-1.3,0-2.4,1.1-2.4,2.5c0,0.2,0,0.4,0.1,0.6c-2-0.1-3.7-1.1-4.9-2.6c-0.2,0.4-0.3,0.8-0.3,1.3c0,0.9,0.4,1.6,1.1,2.1
	c-0.4,0-0.8-0.1-1.1-0.3v0c0,1.2,0.8,2.2,1.9,2.5c-0.2,0.1-0.4,0.1-0.6,0.1c-0.2,0-0.3,0-0.4,0c0.3,1,1.2,1.7,2.2,1.7
	c-0.8,0.7-1.8,1.1-3,1.1c-0.2,0-0.4,0-0.6,0c1.1,0.7,2.3,1.1,3.7,1.1c4.4,0,6.8-3.8,6.8-7.1c0-0.1,0-0.2,0-0.3
	c0.5-0.4,0.9-0.8,1.2-1.3C67.8,59.8,67.4,59.9,66.9,60z"/>
<g id="path-13_3_">
	<path class="st2" d="M62.2,103.4c5.6,0,10.2,4.6,10.2,10.2s-4.6,10.2-10.2,10.2S52,119.1,52,113.5S56.6,103.4,62.2,103.4
		 M62.2,101.4c-6.7,0-12.2,5.4-12.2,12.2c0,6.7,5.4,12.2,12.2,12.2s12.2-5.4,12.2-12.2C74.3,106.8,68.9,101.4,62.2,101.4L62.2,101.4
		z"/>
</g>
<path id="Shape_5_" class="st3" d="M56.9,111.5h2.2v7.5h-2.2V111.5z M57.9,110.6L57.9,110.6c-0.8,0-1.3-0.6-1.3-1.3
	c0-0.7,0.5-1.3,1.3-1.3c0.8,0,1.3,0.6,1.3,1.3C59.2,110,58.7,110.6,57.9,110.6L57.9,110.6z M67.7,119h-2.4v-3.9c0-1-0.4-1.7-1.2-1.7
	c-0.6,0-1,0.5-1.2,0.9c-0.1,0.2-0.1,0.4-0.1,0.6v4.1h-2.4c0,0,0-6.9,0-7.5h2.4v1.2c0.1-0.5,0.9-1.3,2.2-1.3c1.5,0,2.7,1.1,2.7,3.4
	V119L67.7,119z"/>
<g id="path-1_2_">
	<path class="st4" d="M112.8,2c5.6,0,10.2,4.6,10.2,10.2s-4.6,10.2-10.2,10.2s-10.2-4.6-10.2-10.2S107.2,2,112.8,2 M112.8,0
		c-6.7,0-12.2,5.4-12.2,12.2s5.4,12.2,12.2,12.2S125,18.9,125,12.2S119.6,0,112.8,0L112.8,0z"/>
</g>
<path id="Shape_4_" class="st5" d="M113.6,19.3h-2.7V13h-1.3v-2.2h1.3V9.5c0-1.8,0.8-2.9,2.9-2.9h1.8v2.2h-1.1
	c-0.8,0-0.9,0.3-0.9,0.9l0,1.1h2l-0.2,2.2h-1.8L113.6,19.3L113.6,19.3z"/>
<g id="path-3_2_">
	<path class="st4" d="M112.8,52.7c5.6,0,10.2,4.6,10.2,10.2S118.4,73,112.8,73s-10.2-4.6-10.2-10.2S107.2,52.7,112.8,52.7
		 M112.8,50.7c-6.7,0-12.2,5.4-12.2,12.2S106.1,75,112.8,75S125,69.6,125,62.8S119.6,50.7,112.8,50.7L112.8,50.7z"/>
</g>
<path id="Shape_3_" class="st5" d="M117.6,60c0.5-0.3,0.9-0.8,1-1.4c-0.5,0.3-1,0.5-1.5,0.6c-0.4-0.5-1.1-0.8-1.7-0.8
	c-1.3,0-2.4,1.1-2.4,2.5c0,0.2,0,0.4,0.1,0.6c-2-0.1-3.7-1.1-4.9-2.6c-0.2,0.4-0.3,0.8-0.3,1.3c0,0.9,0.4,1.6,1.1,2.1
	c-0.4,0-0.8-0.1-1.1-0.3v0c0,1.2,0.8,2.2,1.9,2.5c-0.2,0.1-0.4,0.1-0.6,0.1c-0.2,0-0.3,0-0.4,0c0.3,1,1.2,1.7,2.2,1.7
	c-0.8,0.7-1.8,1.1-3,1.1c-0.2,0-0.4,0-0.6,0c1.1,0.7,2.3,1.1,3.7,1.1c4.4,0,6.8-3.8,6.8-7.1c0-0.1,0-0.2,0-0.3
	c0.5-0.4,0.9-0.8,1.2-1.3C118.5,59.8,118,59.9,117.6,60z"/>
<g id="path-13_2_">
	<path class="st4" d="M112.8,103.4c5.6,0,10.2,4.6,10.2,10.2s-4.6,10.2-10.2,10.2s-10.2-4.6-10.2-10.2S107.2,103.4,112.8,103.4
		 M112.8,101.4c-6.7,0-12.2,5.4-12.2,12.2c0,6.7,5.4,12.2,12.2,12.2s12.2-5.4,12.2-12.2C125,106.8,119.6,101.4,112.8,101.4
		L112.8,101.4z"/>
</g>
<path id="Shape_2_" class="st5" d="M107.6,111.5h2.2v7.5h-2.2V111.5z M108.6,110.6L108.6,110.6c-0.8,0-1.3-0.6-1.3-1.3
	c0-0.7,0.5-1.3,1.3-1.3c0.8,0,1.3,0.6,1.3,1.3C109.9,110,109.4,110.6,108.6,110.6L108.6,110.6z M118.4,119h-2.4v-3.9
	c0-1-0.4-1.7-1.2-1.7c-0.6,0-1,0.5-1.2,0.9c-0.1,0.2-0.1,0.4-0.1,0.6v4.1h-2.4c0,0,0-6.9,0-7.5h2.4v1.2c0.1-0.5,0.9-1.3,2.2-1.3
	c1.5,0,2.7,1.1,2.7,3.4V119L118.4,119z"/>
</svg>
